<mxfile host="Electron" agent="Mozilla/5.0 (Windows NT 10.0; Win64; x64) AppleWebKit/537.36 (KHTML, like Gecko) draw.io/24.7.17 Chrome/128.0.6613.36 Electron/32.0.1 Safari/537.36" version="24.7.17">
  <diagram name="Page-1" id="NkBHDs6iVaJxCvaQR20b">
    <mxGraphModel dx="1956" dy="1671" grid="0" gridSize="10" guides="1" tooltips="1" connect="1" arrows="1" fold="1" page="0" pageScale="1" pageWidth="850" pageHeight="1100" background="#ffffff" math="0" shadow="0">
      <root>
        <mxCell id="0" />
        <mxCell id="1" parent="0" />
        <mxCell id="VIbB292d7TreiG53geS2-1" value="Constituent" style="swimlane;whiteSpace=wrap;html=1;" parent="1" vertex="1">
          <mxGeometry x="70" y="-30" width="170" height="160" as="geometry" />
        </mxCell>
        <mxCell id="VIbB292d7TreiG53geS2-2" value="User" style="swimlane;whiteSpace=wrap;html=1;" parent="1" vertex="1">
          <mxGeometry x="340" y="-310" width="170" height="170" as="geometry" />
        </mxCell>
        <mxCell id="VIbB292d7TreiG53geS2-3" value="Event" style="swimlane;whiteSpace=wrap;html=1;" parent="1" vertex="1">
          <mxGeometry x="620" y="260" width="200" height="200" as="geometry" />
        </mxCell>
        <mxCell id="VIbB292d7TreiG53geS2-4" value="Feedback" style="swimlane;whiteSpace=wrap;html=1;" parent="1" vertex="1">
          <mxGeometry x="70" y="560" width="200" height="200" as="geometry" />
        </mxCell>
        <mxCell id="VIbB292d7TreiG53geS2-5" value="Complaint" style="swimlane;whiteSpace=wrap;html=1;" parent="1" vertex="1">
          <mxGeometry x="340" y="260" width="200" height="200" as="geometry" />
        </mxCell>
        <mxCell id="VIbB292d7TreiG53geS2-6" value="Representative" style="swimlane;whiteSpace=wrap;html=1;startSize=23;" parent="1" vertex="1">
          <mxGeometry x="630" y="-30" width="170" height="160" as="geometry" />
        </mxCell>
        <mxCell id="VIbB292d7TreiG53geS2-7" value="Survey" style="swimlane;whiteSpace=wrap;html=1;" parent="1" vertex="1">
          <mxGeometry x="40" y="260" width="200" height="200" as="geometry" />
        </mxCell>
        <mxCell id="VIbB292d7TreiG53geS2-8" value="Notification" style="swimlane;whiteSpace=wrap;html=1;" parent="1" vertex="1">
          <mxGeometry x="615" y="560" width="200" height="200" as="geometry" />
        </mxCell>
        <mxCell id="VIbB292d7TreiG53geS2-9" value="" style="endArrow=classic;html=1;rounded=0;exitX=0;exitY=1;exitDx=0;exitDy=0;entryX=0.75;entryY=0;entryDx=0;entryDy=0;" parent="1" source="VIbB292d7TreiG53geS2-2" target="VIbB292d7TreiG53geS2-1" edge="1">
          <mxGeometry width="50" height="50" relative="1" as="geometry">
            <mxPoint x="400" y="-140" as="sourcePoint" />
            <mxPoint x="450" y="-190" as="targetPoint" />
          </mxGeometry>
        </mxCell>
        <mxCell id="VIbB292d7TreiG53geS2-10" value="" style="endArrow=classic;html=1;rounded=0;exitX=1;exitY=1;exitDx=0;exitDy=0;entryX=0.205;entryY=-0.004;entryDx=0;entryDy=0;entryPerimeter=0;" parent="1" source="VIbB292d7TreiG53geS2-2" target="VIbB292d7TreiG53geS2-6" edge="1">
          <mxGeometry width="50" height="50" relative="1" as="geometry">
            <mxPoint x="400" y="-140" as="sourcePoint" />
            <mxPoint x="450" y="-190" as="targetPoint" />
          </mxGeometry>
        </mxCell>
        <mxCell id="VIbB292d7TreiG53geS2-11" value="" style="endArrow=classic;html=1;rounded=0;exitX=0.25;exitY=1;exitDx=0;exitDy=0;entryX=0.6;entryY=0;entryDx=0;entryDy=0;entryPerimeter=0;" parent="1" source="VIbB292d7TreiG53geS2-6" target="VIbB292d7TreiG53geS2-5" edge="1">
          <mxGeometry width="50" height="50" relative="1" as="geometry">
            <mxPoint x="400" y="190" as="sourcePoint" />
            <mxPoint x="450" y="140" as="targetPoint" />
          </mxGeometry>
        </mxCell>
        <mxCell id="VIbB292d7TreiG53geS2-12" value="" style="endArrow=classic;html=1;rounded=0;exitX=0;exitY=0.75;exitDx=0;exitDy=0;entryX=0.96;entryY=-0.025;entryDx=0;entryDy=0;entryPerimeter=0;" parent="1" source="VIbB292d7TreiG53geS2-6" target="VIbB292d7TreiG53geS2-7" edge="1">
          <mxGeometry width="50" height="50" relative="1" as="geometry">
            <mxPoint x="400" y="190" as="sourcePoint" />
            <mxPoint x="450" y="140" as="targetPoint" />
          </mxGeometry>
        </mxCell>
        <mxCell id="VIbB292d7TreiG53geS2-13" value="" style="endArrow=classic;html=1;rounded=0;entryX=0.5;entryY=0;entryDx=0;entryDy=0;" parent="1" target="VIbB292d7TreiG53geS2-3" edge="1">
          <mxGeometry width="50" height="50" relative="1" as="geometry">
            <mxPoint x="720" y="130" as="sourcePoint" />
            <mxPoint x="450" y="140" as="targetPoint" />
          </mxGeometry>
        </mxCell>
        <mxCell id="VIbB292d7TreiG53geS2-14" value="" style="endArrow=classic;html=1;rounded=0;" parent="1" edge="1">
          <mxGeometry width="50" height="50" relative="1" as="geometry">
            <mxPoint x="150" y="130" as="sourcePoint" />
            <mxPoint x="150" y="250" as="targetPoint" />
          </mxGeometry>
        </mxCell>
        <mxCell id="VIbB292d7TreiG53geS2-15" value="Department" style="swimlane;whiteSpace=wrap;html=1;" parent="1" vertex="1">
          <mxGeometry x="340" y="560" width="200" height="200" as="geometry" />
        </mxCell>
        <mxCell id="VIbB292d7TreiG53geS2-16" value="" style="endArrow=classic;html=1;rounded=0;entryX=0.5;entryY=0;entryDx=0;entryDy=0;exitX=0.5;exitY=1;exitDx=0;exitDy=0;" parent="1" source="VIbB292d7TreiG53geS2-5" target="VIbB292d7TreiG53geS2-15" edge="1">
          <mxGeometry width="50" height="50" relative="1" as="geometry">
            <mxPoint x="400" y="500" as="sourcePoint" />
            <mxPoint x="450" y="450" as="targetPoint" />
          </mxGeometry>
        </mxCell>
        <mxCell id="VIbB292d7TreiG53geS2-17" value="" style="endArrow=classic;html=1;rounded=0;entryX=0.309;entryY=-0.005;entryDx=0;entryDy=0;entryPerimeter=0;" parent="1" target="VIbB292d7TreiG53geS2-8" edge="1">
          <mxGeometry width="50" height="50" relative="1" as="geometry">
            <mxPoint x="470" y="460" as="sourcePoint" />
            <mxPoint x="450" y="450" as="targetPoint" />
          </mxGeometry>
        </mxCell>
        <mxCell id="VIbB292d7TreiG53geS2-18" value="" style="endArrow=classic;html=1;rounded=0;entryX=0.414;entryY=-0.009;entryDx=0;entryDy=0;entryPerimeter=0;" parent="1" target="VIbB292d7TreiG53geS2-4" edge="1">
          <mxGeometry width="50" height="50" relative="1" as="geometry">
            <mxPoint x="150" y="460" as="sourcePoint" />
            <mxPoint x="450" y="450" as="targetPoint" />
          </mxGeometry>
        </mxCell>
        <mxCell id="VIbB292d7TreiG53geS2-19" value="" style="endArrow=classic;html=1;rounded=0;exitX=0.5;exitY=1;exitDx=0;exitDy=0;entryX=0.545;entryY=0.007;entryDx=0;entryDy=0;entryPerimeter=0;" parent="1" source="VIbB292d7TreiG53geS2-3" target="VIbB292d7TreiG53geS2-8" edge="1">
          <mxGeometry width="50" height="50" relative="1" as="geometry">
            <mxPoint x="400" y="500" as="sourcePoint" />
            <mxPoint x="450" y="450" as="targetPoint" />
          </mxGeometry>
        </mxCell>
        <mxCell id="NwS8k_qK932kKc3wcx5m-1" value="Inherits" style="text;html=1;align=center;verticalAlign=middle;whiteSpace=wrap;rounded=0;" parent="1" vertex="1">
          <mxGeometry x="230" y="-130" width="60" height="30" as="geometry" />
        </mxCell>
        <mxCell id="NwS8k_qK932kKc3wcx5m-3" value="Organize" style="text;html=1;align=center;verticalAlign=middle;whiteSpace=wrap;rounded=0;" parent="1" vertex="1">
          <mxGeometry x="730" y="170" width="60" height="30" as="geometry" />
        </mxCell>
        <mxCell id="NwS8k_qK932kKc3wcx5m-4" value="Create" style="text;html=1;align=center;verticalAlign=middle;whiteSpace=wrap;rounded=0;" parent="1" vertex="1">
          <mxGeometry x="410" y="120" width="60" height="30" as="geometry" />
        </mxCell>
        <mxCell id="NwS8k_qK932kKc3wcx5m-5" value="Forward" style="text;html=1;align=center;verticalAlign=middle;whiteSpace=wrap;rounded=0;" parent="1" vertex="1">
          <mxGeometry x="520" y="160" width="60" height="30" as="geometry" />
        </mxCell>
        <mxCell id="NwS8k_qK932kKc3wcx5m-6" value="Participates in" style="text;html=1;align=center;verticalAlign=middle;whiteSpace=wrap;rounded=0;" parent="1" vertex="1">
          <mxGeometry x="150" y="160" width="60" height="30" as="geometry" />
        </mxCell>
        <mxCell id="NwS8k_qK932kKc3wcx5m-7" value="inherits" style="text;html=1;align=center;verticalAlign=middle;whiteSpace=wrap;rounded=0;" parent="1" vertex="1">
          <mxGeometry x="600" y="-110" width="60" height="30" as="geometry" />
        </mxCell>
        <mxCell id="NwS8k_qK932kKc3wcx5m-8" value="Triggers" style="text;html=1;align=center;verticalAlign=middle;whiteSpace=wrap;rounded=0;" parent="1" vertex="1">
          <mxGeometry x="560" y="480" width="60" height="30" as="geometry" />
        </mxCell>
        <mxCell id="NwS8k_qK932kKc3wcx5m-9" value="Routed to" style="text;html=1;align=center;verticalAlign=middle;whiteSpace=wrap;rounded=0;" parent="1" vertex="1">
          <mxGeometry x="440" y="500" width="60" height="30" as="geometry" />
        </mxCell>
        <mxCell id="NwS8k_qK932kKc3wcx5m-10" value="Results in" style="text;html=1;align=center;verticalAlign=middle;whiteSpace=wrap;rounded=0;" parent="1" vertex="1">
          <mxGeometry x="150" y="480" width="60" height="30" as="geometry" />
        </mxCell>
        <mxCell id="NwS8k_qK932kKc3wcx5m-11" value="Notifies" style="text;html=1;align=center;verticalAlign=middle;resizable=0;points=[];autosize=1;strokeColor=none;fillColor=none;" parent="1" vertex="1">
          <mxGeometry x="715" y="500" width="60" height="30" as="geometry" />
        </mxCell>
        <mxCell id="NwS8k_qK932kKc3wcx5m-12" value="" style="endArrow=classic;html=1;rounded=0;entryX=0.408;entryY=-0.029;entryDx=0;entryDy=0;entryPerimeter=0;" parent="1" target="VIbB292d7TreiG53geS2-5" edge="1">
          <mxGeometry width="50" height="50" relative="1" as="geometry">
            <mxPoint x="220" y="130" as="sourcePoint" />
            <mxPoint x="450" y="260" as="targetPoint" />
          </mxGeometry>
        </mxCell>
        <mxCell id="NwS8k_qK932kKc3wcx5m-13" value="Reports" style="text;html=1;align=center;verticalAlign=middle;whiteSpace=wrap;rounded=0;" parent="1" vertex="1">
          <mxGeometry x="290" y="150" width="60" height="30" as="geometry" />
        </mxCell>
      </root>
    </mxGraphModel>
  </diagram>
</mxfile>
